<svg xmlns="http://www.w3.org/2000/svg" version="1.1" xmlns:xlink="http://www.w3.org/1999/xlink" xmlns:svgjs="http://svgjs.com/svgjs" width="1434" height="566" preserveAspectRatio="none" viewBox="0 0 1434 566"><g mask="url(&quot;#SvgjsMask1108&quot;)" fill="none"><rect width="1434" height="566" x="0" y="0" fill="rgba(255, 255, 255, 1)"></rect><path d="M -440.8836041717602,169 C -369.08,212 -225.48,398.8 -81.8836041717602,384 C 61.72,369.2 133.52,107.6 277.1163958282398,95 C 420.72,82.4 492.52,291.8 636.1163958282398,321 C 779.72,350.2 851.52,206.8 995.1163958282398,241 C 1138.72,275.2 1266.34,512.6 1354.1163958282398,492 C 1441.89,471.4 1418.02,208.8 1434,138" stroke="rgba(0, 0, 0, 1)" stroke-width="2"></path><path d="M -397.6529622673162,111 C -325.85,167.6 -182.25,378.4 -38.65296226731621,394 C 104.95,409.6 176.75,169.2 320.3470377326838,189 C 463.95,208.8 535.75,491.2 679.3470377326838,493 C 822.95,494.8 894.75,219.6 1038.3470377326837,198 C 1181.95,176.4 1318.22,403.4 1397.3470377326837,385 C 1476.48,366.6 1426.67,161.8 1434,106" stroke="rgba(0, 0, 0, 1)" stroke-width="2"></path><path d="M -491.20082309768117,487 C -419.4,426.2 -275.8,181 -132.20082309768117,183 C 11.4,185 83.2,487.8 226.79917690231883,497 C 370.4,506.2 442.2,253.2 585.7991769023188,229 C 729.4,204.8 801.2,374.4 944.7991769023188,376 C 1088.4,377.6 1205.96,253 1303.7991769023188,237 C 1401.64,221 1407.96,284.2 1434,296" stroke="rgba(0, 0, 0, 1)" stroke-width="2"></path><path d="M -269.62132062925843,355 C -197.82,304.8 -54.22,83.4 89.37867937074154,104 C 232.98,124.6 304.78,425.4 448.37867937074157,458 C 591.98,490.6 663.78,301 807.3786793707416,267 C 950.98,233 1022.78,304.4 1166.3786793707416,288 C 1309.98,271.6 1471.85,152.2 1525.3786793707416,185 C 1578.9,217.8 1452.28,398.6 1434,452" stroke="rgba(0, 0, 0, 1)" stroke-width="2"></path><path d="M -49.03863552401492,200 C 22.76,252 166.36,455.8 309.9613644759851,460 C 453.56,464.2 525.36,243.2 668.9613644759851,221 C 812.56,198.8 884.36,337 1027.9613644759852,349 C 1171.56,361 1243.36,255.6 1386.9613644759852,281 C 1530.56,306.4 1736.55,500.8 1745.9613644759852,476 C 1755.37,451.2 1496.39,220.8 1434,157" stroke="rgba(0, 0, 0, 1)" stroke-width="2"></path></g><defs><mask id="SvgjsMask1108"><rect width="1434" height="566" fill="#ffffff"></rect></mask></defs></svg>